<svg width="33" height="33" viewBox="0 0 33 33" fill="none" xmlns="http://www.w3.org/2000/svg">
<g id="atoms/icons/colored/rounded/facebook">
<path id="bg" d="M0.524536 16.0247C0.524536 24.8612 7.68798 32.0247 16.5245 32.0247C25.3611 32.0247 32.5245 24.8612 32.5245 16.0247C32.5245 7.1881 25.3611 0.0246582 16.5245 0.0246582C7.68798 0.0246582 0.524536 7.1881 0.524536 16.0247Z" fill="#1877F2"/>
<path id="facebook" d="M24.5245 16.0247C24.5245 11.6247 20.9245 8.02466 16.5245 8.02466C12.1245 8.02466 8.52454 11.6247 8.52454 16.0247C8.52454 20.0247 11.4245 23.3247 15.2245 23.9247V18.3247H13.2245V16.0247H15.2245V14.2247C15.2245 12.2247 16.4245 11.1247 18.2245 11.1247C19.1245 11.1247 20.0245 11.3247 20.0245 11.3247V13.3247H19.0245C18.0245 13.3247 17.7245 13.9247 17.7245 14.5247V16.0247H19.9245L19.5245 18.3247H17.6245V24.0247C21.6245 23.4247 24.5245 20.0247 24.5245 16.0247Z" fill="white"/>
</g>
</svg>
