<svg width="33" height="33" viewBox="0 0 33 33" fill="none" xmlns="http://www.w3.org/2000/svg">
<g id="atoms/icons/colored/rounded/google">
<path id="bg" d="M32.5245 16.0247C32.5245 7.1881 25.3611 0.0246582 16.5245 0.0246582C7.68798 0.0246582 0.524536 7.1881 0.524536 16.0247C0.524536 24.8612 7.68798 32.0247 16.5245 32.0247C25.3611 32.0247 32.5245 24.8612 32.5245 16.0247Z" fill="white"/>
<path id="google" fill-rule="evenodd" clip-rule="evenodd" d="M24.3545 16.2064C24.3545 15.6392 24.3035 15.0937 24.209 14.5701H16.6744V17.6646H20.9799C20.7944 18.6646 20.2308 19.5119 19.3835 20.0792V22.0864H21.969C23.4817 20.6937 24.3545 18.6428 24.3545 16.2064Z" fill="#4285F4"/>
<path id="google_2" fill-rule="evenodd" clip-rule="evenodd" d="M16.6741 24.0247C18.8341 24.0247 20.645 23.3083 21.9687 22.0865L19.3832 20.0792C18.6669 20.5592 17.7505 20.8429 16.6741 20.8429C14.5905 20.8429 12.8268 19.4356 12.1978 17.5447H9.52502V19.6174C10.8414 22.232 13.5469 24.0247 16.6741 24.0247Z" fill="#34A853"/>
<path id="google_3" fill-rule="evenodd" clip-rule="evenodd" d="M12.1981 17.5446C12.0381 17.0646 11.9472 16.5519 11.9472 16.0246C11.9472 15.4973 12.0381 14.9846 12.1981 14.5046V12.4319H9.52535C8.98353 13.5119 8.67444 14.7337 8.67444 16.0246C8.67444 17.3155 8.98353 18.5374 9.52535 19.6174L12.1981 17.5446Z" fill="#FBBC05"/>
<path id="google_4" fill-rule="evenodd" clip-rule="evenodd" d="M16.6741 11.2065C17.8487 11.2065 18.9032 11.6101 19.7323 12.4028L22.0269 10.1083C20.6414 8.81739 18.8305 8.02466 16.6741 8.02466C13.5469 8.02466 10.8414 9.81739 9.52502 12.4319L12.1978 14.5047C12.8268 12.6138 14.5905 11.2065 16.6741 11.2065Z" fill="#EA4335"/>
</g>
</svg>
