<svg width="33" height="33" viewBox="0 0 33 33" fill="none" xmlns="http://www.w3.org/2000/svg">
<g id="atoms/icons/colored/rounded/instagram">
<path id="bg" d="M0.524536 16.0247C0.524536 24.8612 7.68798 32.0247 16.5245 32.0247C25.3611 32.0247 32.5245 24.8612 32.5245 16.0247C32.5245 7.1881 25.3611 0.0246582 16.5245 0.0246582C7.68798 0.0246582 0.524536 7.1881 0.524536 16.0247Z" fill="#F00073"/>
<g id="instagram">
<path d="M16.5245 9.22461C18.7245 9.22461 19.0245 9.22461 19.9245 9.22461C20.7245 9.22461 21.1245 9.42461 21.4245 9.52461C21.8245 9.72461 22.1245 9.82461 22.4245 10.1246C22.7245 10.4246 22.9245 10.7246 23.0245 11.1246C23.1245 11.4246 23.2245 11.8246 23.3245 12.6246C23.3245 13.5246 23.3245 13.7246 23.3245 16.0246C23.3245 18.3246 23.3245 18.5246 23.3245 19.4246C23.3245 20.2246 23.1245 20.6246 23.0245 20.9246C22.8245 21.3246 22.7245 21.6246 22.4245 21.9246C22.1245 22.2246 21.8245 22.4246 21.4245 22.5246C21.1245 22.6246 20.7245 22.7246 19.9245 22.8246C19.0245 22.8246 18.8245 22.8246 16.5245 22.8246C14.2245 22.8246 14.0245 22.8246 13.1245 22.8246C12.3245 22.8246 11.9245 22.6246 11.6245 22.5246C11.2245 22.3246 10.9245 22.2246 10.6245 21.9246C10.3245 21.6246 10.1245 21.3246 10.0245 20.9246C9.92455 20.6246 9.82455 20.2246 9.72455 19.4246C9.72455 18.5246 9.72455 18.3246 9.72455 16.0246C9.72455 13.7246 9.72455 13.5246 9.72455 12.6246C9.72455 11.8246 9.92455 11.4246 10.0245 11.1246C10.2245 10.7246 10.3245 10.4246 10.6245 10.1246C10.9245 9.82461 11.2245 9.62461 11.6245 9.52461C11.9245 9.42461 12.3245 9.32461 13.1245 9.22461C14.0245 9.22461 14.3245 9.22461 16.5245 9.22461ZM16.5245 7.72461C14.2245 7.72461 14.0245 7.72461 13.1245 7.72461C12.2245 7.72461 11.6245 7.92461 11.1245 8.12461C10.6245 8.32461 10.1245 8.62461 9.62455 9.12461C9.12455 9.62461 8.92455 10.0246 8.62455 10.6246C8.42455 11.1246 8.32455 11.7246 8.22455 12.6246C8.22455 13.5246 8.22455 13.8246 8.22455 16.0246C8.22455 18.3246 8.22455 18.5246 8.22455 19.4246C8.22455 20.3246 8.42455 20.9246 8.62455 21.4246C8.82455 21.9246 9.12455 22.4246 9.62455 22.9246C10.1245 23.4246 10.5245 23.6246 11.1245 23.9246C11.6245 24.1246 12.2245 24.2246 13.1245 24.3246C14.0245 24.3246 14.3245 24.3246 16.5245 24.3246C18.7245 24.3246 19.0245 24.3246 19.9245 24.3246C20.8245 24.3246 21.4245 24.1246 21.9245 23.9246C22.4245 23.7246 22.9245 23.4246 23.4245 22.9246C23.9245 22.4246 24.1245 22.0246 24.4245 21.4246C24.6245 20.9246 24.7245 20.3246 24.8245 19.4246C24.8245 18.5246 24.8245 18.2246 24.8245 16.0246C24.8245 13.8246 24.8245 13.5246 24.8245 12.6246C24.8245 11.7246 24.6245 11.1246 24.4245 10.6246C24.2245 10.1246 23.9245 9.62461 23.4245 9.12461C22.9245 8.62461 22.5245 8.42461 21.9245 8.12461C21.4245 7.92461 20.8245 7.82461 19.9245 7.72461C19.0245 7.72461 18.8245 7.72461 16.5245 7.72461Z" fill="white"/>
<path d="M16.5245 11.7246C14.1245 11.7246 12.2245 13.6246 12.2245 16.0246C12.2245 18.4246 14.1245 20.3246 16.5245 20.3246C18.9245 20.3246 20.8245 18.4246 20.8245 16.0246C20.8245 13.6246 18.9245 11.7246 16.5245 11.7246ZM16.5245 18.8246C15.0245 18.8246 13.7245 17.6246 13.7245 16.0246C13.7245 14.5246 14.9245 13.2246 16.5245 13.2246C18.0245 13.2246 19.3245 14.4246 19.3245 16.0246C19.3245 17.5246 18.0245 18.8246 16.5245 18.8246Z" fill="white"/>
<path d="M20.9245 12.6246C21.4768 12.6246 21.9245 12.1769 21.9245 11.6246C21.9245 11.0723 21.4768 10.6246 20.9245 10.6246C20.3723 10.6246 19.9245 11.0723 19.9245 11.6246C19.9245 12.1769 20.3723 12.6246 20.9245 12.6246Z" fill="white"/>
</g>
</g>
</svg>
