<svg width="33" height="33" viewBox="0 0 33 33" fill="none" xmlns="http://www.w3.org/2000/svg">
<g id="atoms/icons/colored/rounded/twitter">
<path id="bg" d="M0.524536 16.0247C0.524536 24.8612 7.68798 32.0247 16.5245 32.0247C25.3611 32.0247 32.5245 24.8612 32.5245 16.0247C32.5245 7.1881 25.3611 0.0246582 16.5245 0.0246582C7.68798 0.0246582 0.524536 7.1881 0.524536 16.0247Z" fill="#1DA1F2"/>
<path id="twitter" d="M24.5245 11.0247C23.9245 11.3247 23.3245 11.4247 22.6245 11.5247C23.3245 11.1247 23.8245 10.5247 24.0245 9.72466C23.4245 10.1247 22.7245 10.3247 21.9245 10.5247C21.3245 9.92466 20.4245 9.52466 19.5245 9.52466C17.4245 9.52466 15.8245 11.5247 16.3245 13.5247C13.6245 13.4247 11.2245 12.1247 9.52454 10.1247C8.62454 11.6247 9.12454 13.5247 10.5245 14.5247C10.0245 14.5247 9.52454 14.3247 9.02454 14.1247C9.02454 15.6247 10.1245 17.0247 11.6245 17.4247C11.1245 17.5247 10.6245 17.6247 10.1245 17.5247C10.5245 18.8247 11.7245 19.8247 13.2245 19.8247C12.0245 20.7247 10.2245 21.2247 8.52454 21.0247C10.0245 21.9247 11.7245 22.5247 13.5245 22.5247C19.6245 22.5247 23.0245 17.4247 22.8245 12.7247C23.5245 12.3247 24.1245 11.7247 24.5245 11.0247Z" fill="white"/>
</g>
</svg>
