<svg width="33" height="33" viewBox="0 0 33 33" fill="none" xmlns="http://www.w3.org/2000/svg">
<g id="Group 12862">
<circle id="Ellipse 184" cx="11.7583" cy="16.0244" r="8" fill="#FF4C00"/>
<path id="Ellipse 185" d="M16.0049 3.25553C16.0022 1.47111 17.4609 -0.0104734 19.2096 0.344743C20.205 0.546937 21.1812 0.843942 22.1248 1.23307C24.0672 2.03417 25.8329 3.21001 27.3209 4.69346C28.8089 6.17692 29.9901 7.93893 30.7972 9.8789C31.6043 11.8189 32.0213 13.8988 32.0245 16C32.0278 18.1011 31.6171 20.1823 30.816 22.1248C30.0149 24.0672 28.8391 25.8328 27.3556 27.3209C25.8722 28.8089 24.1101 29.9901 22.1702 30.7972C21.2278 31.1892 20.2525 31.4892 19.2577 31.6945C17.5101 32.055 16.0469 30.5779 16.0442 28.7935C16.0414 27.0091 17.5258 25.6112 19.2079 25.0156C19.3694 24.9584 19.5296 24.8969 19.6881 24.8309C20.8446 24.3498 21.895 23.6456 22.7793 22.7586C23.6636 21.8715 24.3646 20.819 24.8421 19.661C25.3197 18.5031 25.5645 17.2624 25.5626 16.0099C25.5606 14.7573 25.312 13.5174 24.8309 12.361C24.3498 11.2045 23.6456 10.1541 22.7586 9.26978C21.8715 8.38546 20.819 7.6845 19.6611 7.20695C19.5023 7.14148 19.342 7.08038 19.1803 7.02369C17.4964 6.43329 16.0077 5.03995 16.0049 3.25553Z" fill="#FF4C00"/>
</g>
</svg>
